const unsigned char pop1_mid[] PROGMEM  = {
  0x4d, 0x54, 0x68, 0x64, 0x00, 0x00, 0x00, 0x06, 0x00, 0x01, 0x00, 0x02,
  0x00, 0x78, 0x4d, 0x54, 0x72, 0x6b, 0x00, 0x00, 0x00, 0x2e, 0x00, 0xff,
  0x03, 0x08, 0x75, 0x6e, 0x74, 0x69, 0x74, 0x6c, 0x65, 0x64, 0x00, 0xff,
  0x54, 0x05, 0x60, 0x00, 0x03, 0x00, 0x00, 0x00, 0xff, 0x58, 0x04, 0x04,
  0x02, 0x18, 0x08, 0x00, 0xff, 0x59, 0x02, 0x00, 0x00, 0x00, 0xff, 0x51,
  0x03, 0x09, 0x27, 0xc0, 0x00, 0xff, 0x2f, 0x00, 0x4d, 0x54, 0x72, 0x6b,
  0x00, 0x00, 0x02, 0x75, 0x00, 0xff, 0x03, 0x07, 0x54, 0x72, 0x61, 0x63,
  0x6b, 0x20, 0x31, 0x00, 0x99, 0x23, 0x6f, 0x00, 0x2a, 0x4e, 0x0a, 0x2a,
  0x00, 0x00, 0x23, 0x00, 0x32, 0x2a, 0x40, 0x0a, 0x2a, 0x00, 0x32, 0x2a,
  0x5c, 0x00, 0x26, 0x65, 0x0a, 0x26, 0x00, 0x00, 0x2a, 0x00, 0x32, 0x2a,
  0x40, 0x0a, 0x2a, 0x00, 0x14, 0x23, 0x14, 0x0a, 0x23, 0x00, 0x14, 0x2a,
  0x4e, 0x00, 0x23, 0x6f, 0x0a, 0x23, 0x00, 0x00, 0x2a, 0x00, 0x32, 0x2a,
  0x40, 0x0a, 0x2a, 0x00, 0x32, 0x2a, 0x5c, 0x00, 0x26, 0x65, 0x0a, 0x26,
  0x00, 0x00, 0x2a, 0x00, 0x32, 0x2a, 0x40, 0x0a, 0x2a, 0x00, 0x14, 0x23,
  0x14, 0x0a, 0x23, 0x00, 0x14, 0x23, 0x6f, 0x00, 0x2a, 0x4e, 0x0a, 0x2a,
  0x00, 0x00, 0x23, 0x00, 0x32, 0x2a, 0x40, 0x0a, 0x2a, 0x00, 0x32, 0x2a,
  0x5c, 0x00, 0x26, 0x65, 0x0a, 0x26, 0x00, 0x00, 0x2a, 0x00, 0x32, 0x2a,
  0x40, 0x0a, 0x2a, 0x00, 0x14, 0x23, 0x14, 0x0a, 0x23, 0x00, 0x14, 0x2a,
  0x4e, 0x00, 0x23, 0x6f, 0x0a, 0x23, 0x00, 0x00, 0x2a, 0x00, 0x32, 0x2a,
  0x40, 0x0a, 0x2a, 0x00, 0x32, 0x2a, 0x5c, 0x00, 0x26, 0x65, 0x0a, 0x26,
  0x00, 0x00, 0x2a, 0x00, 0x32, 0x2a, 0x40, 0x0a, 0x2a, 0x00, 0x14, 0x23,
  0x14, 0x0a, 0x23, 0x00, 0x14, 0x23, 0x6f, 0x00, 0x2a, 0x4e, 0x0a, 0x2a,
  0x00, 0x00, 0x23, 0x00, 0x32, 0x2a, 0x40, 0x0a, 0x2a, 0x00, 0x32, 0x2a,
  0x5c, 0x00, 0x26, 0x65, 0x0a, 0x26, 0x00, 0x00, 0x2a, 0x00, 0x32, 0x2a,
  0x40, 0x0a, 0x2a, 0x00, 0x14, 0x23, 0x14, 0x0a, 0x23, 0x00, 0x14, 0x2a,
  0x4e, 0x00, 0x23, 0x6f, 0x0a, 0x23, 0x00, 0x00, 0x2a, 0x00, 0x32, 0x2a,
  0x40, 0x0a, 0x2a, 0x00, 0x32, 0x2a, 0x5c, 0x00, 0x26, 0x65, 0x0a, 0x26,
  0x00, 0x00, 0x2a, 0x00, 0x32, 0x2a, 0x40, 0x0a, 0x2a, 0x00, 0x14, 0x23,
  0x14, 0x0a, 0x23, 0x00, 0x14, 0x2a, 0x4e, 0x00, 0x23, 0x6f, 0x0a, 0x23,
  0x00, 0x00, 0x2a, 0x00, 0x32, 0x2a, 0x40, 0x0a, 0x2a, 0x00, 0x32, 0x2a,
  0x5c, 0x00, 0x26, 0x65, 0x0a, 0x26, 0x00, 0x00, 0x2a, 0x00, 0x32, 0x2a,
  0x47, 0x0a, 0x2a, 0x00, 0x14, 0x23, 0x4f, 0x0a, 0x23, 0x00, 0x14, 0x2e,
  0x4f, 0x00, 0x23, 0x6f, 0x0a, 0x23, 0x00, 0x00, 0x2e, 0x00, 0x81, 0x66,
  0x23, 0x6f, 0x00, 0x2a, 0x4e, 0x0a, 0x2a, 0x00, 0x00, 0x23, 0x00, 0x32,
  0x2a, 0x40, 0x0a, 0x2a, 0x00, 0x32, 0x2a, 0x5c, 0x00, 0x26, 0x65, 0x0a,
  0x26, 0x00, 0x00, 0x2a, 0x00, 0x32, 0x2a, 0x40, 0x0a, 0x2a, 0x00, 0x14,
  0x23, 0x14, 0x0a, 0x23, 0x00, 0x14, 0x2a, 0x4e, 0x00, 0x23, 0x6f, 0x0a,
  0x23, 0x00, 0x00, 0x2a, 0x00, 0x32, 0x2a, 0x40, 0x0a, 0x2a, 0x00, 0x32,
  0x2a, 0x5c, 0x00, 0x26, 0x65, 0x0a, 0x26, 0x00, 0x00, 0x2a, 0x00, 0x32,
  0x2a, 0x40, 0x0a, 0x2a, 0x00, 0x14, 0x23, 0x14, 0x0a, 0x23, 0x00, 0x14,
  0x2a, 0x4e, 0x00, 0x23, 0x6f, 0x0a, 0x23, 0x00, 0x00, 0x2a, 0x00, 0x32,
  0x2a, 0x40, 0x0a, 0x2a, 0x00, 0x32, 0x2a, 0x5c, 0x00, 0x26, 0x65, 0x0a,
  0x26, 0x00, 0x00, 0x2a, 0x00, 0x32, 0x2a, 0x40, 0x0a, 0x2a, 0x00, 0x14,
  0x23, 0x14, 0x0a, 0x23, 0x00, 0x14, 0x2a, 0x4e, 0x00, 0x23, 0x6f, 0x0a,
  0x23, 0x00, 0x00, 0x2a, 0x00, 0x32, 0x2a, 0x40, 0x0a, 0x2a, 0x00, 0x32,
  0x2a, 0x5c, 0x00, 0x26, 0x65, 0x0a, 0x26, 0x00, 0x00, 0x2a, 0x00, 0x32,
  0x2a, 0x40, 0x0a, 0x2a, 0x00, 0x14, 0x23, 0x14, 0x0a, 0x23, 0x00, 0x14,
  0x23, 0x6f, 0x00, 0x2a, 0x4e, 0x0a, 0x2a, 0x00, 0x00, 0x23, 0x00, 0x32,
  0x2a, 0x40, 0x0a, 0x2a, 0x00, 0x32, 0x2a, 0x5c, 0x00, 0x26, 0x65, 0x0a,
  0x26, 0x00, 0x00, 0x2a, 0x00, 0x32, 0x2a, 0x40, 0x0a, 0x2a, 0x00, 0x14,
  0x23, 0x14, 0x0a, 0x23, 0x00, 0x14, 0x2a, 0x4e, 0x00, 0x23, 0x6f, 0x0a,
  0x23, 0x00, 0x00, 0x2a, 0x00, 0x32, 0x2a, 0x40, 0x0a, 0x2a, 0x00, 0x32,
  0x2a, 0x5c, 0x00, 0x26, 0x65, 0x0a, 0x26, 0x00, 0x00, 0x2a, 0x00, 0x32,
  0x2a, 0x40, 0x0a, 0x2a, 0x00, 0x14, 0x23, 0x14, 0x0a, 0x23, 0x00, 0x14,
  0x2a, 0x4e, 0x00, 0x23, 0x6f, 0x0a, 0x23, 0x00, 0x00, 0x2a, 0x00, 0x32,
  0x2a, 0x40, 0x0a, 0x2a, 0x00, 0x32, 0x2a, 0x5c, 0x00, 0x26, 0x65, 0x0a,
  0x26, 0x00, 0x00, 0x2a, 0x00, 0x32, 0x2a, 0x47, 0x0a, 0x2a, 0x00, 0x14,
  0x23, 0x4f, 0x0a, 0x23, 0x00, 0x14, 0x2e, 0x4f, 0x00, 0x23, 0x6f, 0x0a,
  0x23, 0x00, 0x00, 0x2e, 0x00, 0x00, 0xff, 0x2f, 0x00
};
unsigned int pop1_mid_len = 705;
